<?xml version="1.0" standalone="no"?>
<!DOCTYPE svg PUBLIC "-//W3C//DTD SVG 20010904//EN"
 "http://www.w3.org/TR/2001/REC-SVG-20010904/DTD/svg10.dtd">
<svg version="1.0" xmlns="http://www.w3.org/2000/svg"
 width="50.000000pt" height="50.000000pt" viewBox="0 0 50.000000 50.000000"
 preserveAspectRatio="xMidYMid meet">

<g transform="translate(0.000000,50.000000) scale(0.100000,-0.100000)"
fill="#000000" stroke="none">
<path d="M120 461 c0 -5 -10 -11 -22 -13 -23 -3 -23 -3 -23 -208 l0 -205 175
0 175 0 0 205 c0 183 -2 205 -17 208 -11 2 -18 -5 -21 -20 -3 -17 -5 -15 -6
10 0 17 -5 32 -11 32 -5 0 -10 -4 -10 -10 0 -5 -6 -10 -14 -10 -8 0 -17 -10
-19 -22 -3 -17 -5 -14 -6 10 0 17 -5 32 -11 32 -5 0 -10 -4 -10 -10 0 -5 -6
-10 -14 -10 -8 0 -17 -10 -19 -22 -3 -17 -5 -14 -6 10 0 17 -5 32 -11 32 -5 0
-10 -4 -10 -10 0 -5 -6 -10 -14 -10 -8 0 -17 -10 -19 -22 -3 -17 -5 -14 -6 10
0 17 -5 32 -11 32 -5 0 -10 -4 -10 -10 0 -5 -6 -10 -14 -10 -8 0 -17 -10 -19
-22 -3 -17 -5 -14 -6 10 0 17 -5 32 -11 32 -5 0 -10 -4 -10 -9z m200 -131 c0
-6 -37 -10 -90 -10 -53 0 -90 4 -90 10 0 6 37 10 90 10 53 0 90 -4 90 -10z
m40 -70 c0 -6 -43 -10 -110 -10 -67 0 -110 4 -110 10 0 6 43 10 110 10 67 0
110 -4 110 -10z m-40 -70 c0 -6 -37 -10 -90 -10 -53 0 -90 4 -90 10 0 6 37 10
90 10 53 0 90 -4 90 -10z m20 -70 c0 -6 -40 -10 -100 -10 -60 0 -100 4 -100
10 0 6 40 10 100 10 60 0 100 -4 100 -10z"/>
</g>
</svg>
